{"title":"LetsTryAnal - Rainia Belle","uid":11080124,"size":261593272,"categoryP":"porn","categoryS":"movie_clips","magnet":"?xt=urn:btih:d1936eb9cab88d0bdd4005fefd9f4c2d3609aeaf&amp;dn=LetsTryAnal+-+Rainia+Belle&amp;tr=udp%3A%2F%2Ftracker.openbittorrent.com%3A80&amp;tr=udp%3A%2F%2Fopen.demonii.com%3A1337&amp;tr=udp%3A%2F%2Ftracker.coppersurfer.tk%3A6969&amp;tr=udp%3A%2F%2Fexodus.desync.com%3A6969","seeders":1,"leechers":0,"uploader":"supertongo","files":1,"time":1411396499,"description":"\nLetsTryAnal - Rainia Belle anal scene in ipod/psp/mobile resolution\n\n\n:::Media info:::\n\nGeneral\nFormat                         : MPEG-4\nFormat profile                 : Base Media\nCodec ID                       : isom\nFile size                      : 249 MiB\nDuration                       : 42mn 32s\nOverall bit rate               : 820 Kbps\n\nVideo\nID                             : 1\nFormat                         : AVC\nFormat/Info                    : Advanced Video Codec\nFormat profile                 : &lt;a class=&quot;__cf_email__&quot; href=&quot;/cdn-cgi/l/email-protection&quot; data-cfemail=&quot;5d1f3c2e38313433381d116f736c&quot;&gt;[email&amp;#160;protected]&lt;/a&gt;&lt;script data-cfhash='f9e31' type=&quot;text/javascript&quot;&gt;\n/* &lt;![CDATA[ */!function(){try{var t=&quot;currentScript&quot;in document?document.currentScript:function(){for(var t=document.getElementsByTagName(&quot;script&quot;),e=t.length;e--;)if(t[e].getAttribute(&quot;data-cfhash&quot;))return t[e]}();if(t&amp;&amp;t.previousSibling){var e,r,n,i,c=t.previousSibling,a=c.getAttribute(&quot;data-cfemail&quot;);if(a){for(e=&quot;&quot;,r=parseInt(a.substr(0,2),16),n=2;a.length-n;n+=2)i=parseInt(a.substr(n,2),16)^r,e+=String.fromCharCode(i);e=document.createTextNode(e),c.parentNode.replaceChild(e,c)}t.parentNode.removeChild(t);}}catch(u){}}()/* ]]&gt; */&lt;/script&gt;\nFormat settings, CABAC         : No\nFormat settings, ReFrames      : 5 frames\nCodec ID                       : avc1\nCodec ID/Info                  : Advanced Video Coding\nDuration                       : 42mn 32s\nBit rate                       : 650 Kbps\nWidth                          : 480 pixels\nHeight                         : 272 pixels\nDisplay aspect ratio           : 16:9\nOriginal display aspect ratio  : 16:9\nFrame rate mode                : Constant\nFrame rate                     : 29.970 fps\nColor space                    : YUV\nChroma subsampling             : 4:2:0\nBit depth                      : 8 bits\nScan type                      : Progressive\nBits/(Pixel*Frame)             : 0.166\nStream size                    : 198 MiB (80%)\n\n\nAudio\nID                             : 2\nFormat                         : AAC\nFormat/Info                    : Advanced Audio Codec\nFormat profile                 : LC\nCodec ID                       : 40\nDuration                       : 42mn 32s\nDuration_LastFrame             : -9ms\nBit rate mode                  : Constant\nBit rate                       : 128 Kbps\nChannel(s)                     : 2 channels\nChannel positions              : Front: L R\nSampling rate                  : 48.0 KHz\nCompression mode               : Lossy\nStream size                    : 38.9 MiB (16%)\n\n\n &lt;a href=&quot;\nhttp://bayimg.com/PAanHAagI&quot; rel=&quot;nofollow&quot; target=&quot;_NEW&quot;&gt;\nhttp://bayimg.com/PAanHAagI&lt;/a&gt;","torrent":{"xt":"urn:btih:d1936eb9cab88d0bdd4005fefd9f4c2d3609aeaf","amp;dn":"LetsTryAnal+-+Rainia+Belle","amp;tr":["udp%3A%2F%2Ftracker.openbittorrent.com%3A80","udp%3A%2F%2Fopen.demonii.com%3A1337","udp%3A%2F%2Ftracker.coppersurfer.tk%3A6969","udp%3A%2F%2Fexodus.desync.com%3A6969"],"infoHash":"d1936eb9cab88d0bdd4005fefd9f4c2d3609aeaf","infoHashBuffer":{"type":"Buffer","data":[209,147,110,185,202,184,141,11,221,64,5,254,253,159,76,45,54,9,174,175]},"announce":[],"urlList":[]}}